<?xml version="1.0" encoding="utf-8"?>
<!-- Generator: Adobe Illustrator 16.0.3, SVG Export Plug-In . SVG Version: 6.00 Build 0)  -->
<!DOCTYPE svg PUBLIC "-//W3C//DTD SVG 1.1//EN" "http://www.w3.org/Graphics/SVG/1.1/DTD/svg11.dtd">
<svg version="1.1" id="图层_1" xmlns="http://www.w3.org/2000/svg" xmlns:xlink="http://www.w3.org/1999/xlink" x="0px" y="0px"
	 width="1080px" height="1920px" viewBox="0 0 1080 1920" enable-background="new 0 0 1080 1920" xml:space="preserve">
<rect y="38.214" fill="#FFFFFF" fill-opacity="0" width="38" height="38"/>
<g id="图层_2" display="none">
	<rect x="-11.182" y="-19.363" display="inline" fill="#CCCCCC" width="1104.545" height="1947.729"/>
</g>
<path fill="#D7006D" d="M25.934,29.939c0.562,0.551,0.562,1.5,0,2.074c-0.562,0.586-1.5,0.586-2.086,0L12.09,20.265
	c-0.594-0.587-0.594-1.524,0-2.099L23.848,6.404c0.586-0.573,1.523-0.573,2.086,0c0.562,0.581,0.562,1.5,0,2.086L15.207,19.198
	L25.934,29.939L25.934,29.939z"/>
<path fill="#D7006D" d="M50.066,8.488c-0.562-0.551-0.562-1.5,0-2.074c0.562-0.586,1.5-0.586,2.086,0L63.91,18.163
	c0.594,0.587,0.594,1.524,0,2.099L52.152,32.023c-0.586,0.573-1.523,0.573-2.086,0c-0.562-0.581-0.562-1.5,0-2.086l10.727-10.708
	L50.066,8.488L50.066,8.488z"/>
<path fill="#FFFFFF" d="M19,47.411c2.695,0,5.148,1.095,6.926,2.874l0,0l0,0c1.779,1.77,2.878,4.222,2.878,6.928
	c0,2.707-1.099,5.165-2.878,6.926l-0.06,0.064c-1.773,1.738-4.201,2.813-6.866,2.813c-2.714,0-5.167-1.099-6.933-2.878l0,0h-0.012
	c-1.761-1.761-2.859-4.219-2.859-6.926c0-2.706,1.099-5.158,2.859-6.928l0.066-0.061C13.888,48.484,16.322,47.411,19,47.411
	L19,47.411z M21.58,53.099L21.58,53.099L19,55.682l-2.581-2.583c-0.419-0.416-1.117-0.416-1.548,0c-0.425,0.421-0.425,1.114,0,1.539
	l2.58,2.575l-2.58,2.573c-0.425,0.426-0.425,1.123,0,1.548c0.431,0.426,1.129,0.426,1.548,0L19,58.761l2.58,2.573
	c0.419,0.426,1.117,0.426,1.53,0c0.425-0.425,0.425-1.122,0-1.539l-2.581-2.582l2.581-2.575c0.425-0.425,0.425-1.118,0-1.539
	C22.697,52.668,21.999,52.668,21.58,53.099L21.58,53.099z M24.397,51.824L24.397,51.824c-1.39-1.385-3.296-2.234-5.397-2.234
	c-2.089,0-3.983,0.834-5.349,2.18l-0.049,0.055c-1.384,1.368-2.24,3.284-2.24,5.389c0,2.103,0.856,4.021,2.24,5.396
	c1.378,1.376,3.285,2.226,5.397,2.226c2.07,0,3.964-0.835,5.336-2.18l0.061-0.046c1.366-1.375,2.222-3.293,2.222-5.396
	C26.619,55.108,25.763,53.192,24.397,51.824L24.397,51.824z"/>
<path fill="#FFFFFF" d="M28.337,94.363l0.045,0.052l0.02,0.026l0.019,0.022l0.033,0.052c0.032,0.035,0.058,0.078,0.084,0.129
	l0.032,0.042l0.02,0.052c0.02,0.032,0.032,0.084,0.052,0.135v0.033l0.026,0.095l0.013,0.11v0.067l0,0v0.068v0.067l-0.013,0.11
	l-0.026,0.113v0.016c-0.02,0.043-0.032,0.094-0.052,0.136l-0.02,0.052l-0.032,0.042l0,0c-0.026,0.052-0.052,0.094-0.084,0.143
	l-0.033,0.035l-0.019,0.026l-0.02,0.016l-0.045,0.052l-9.573,9.586c-0.485,0.469-1.242,0.469-1.708,0
	c-0.453-0.465-0.453-1.222,0-1.698l7.536-7.533H10.53c-0.673,0-1.21-0.533-1.21-1.196s0.537-1.2,1.21-1.2h14.062l-7.536-7.54
	c-0.453-0.464-0.453-1.222,0-1.69c0.466-0.467,1.223-0.467,1.708,0l9.547,9.562L28.337,94.363L28.337,94.363z M28.68,95.179
	L28.68,95.179v0.036v0.033V95.179L28.68,95.179z"/>
<path d="M139.404,2.625L139.404,2.625C137.761,0.996,135.508,0,133.019,0h-32.172c-2.481,0-4.727,0.996-6.371,2.625
	c-1.644,1.643-2.664,3.919-2.664,6.385v20.383c0,2.481,1.021,4.758,2.664,6.4c1.645,1.622,3.89,2.634,6.371,2.634h32.172
	c2.489,0,4.742-1.012,6.386-2.634c1.646-1.643,2.657-3.919,2.657-6.4V9.011C142.061,6.545,141.049,4.269,139.404,2.625
	L139.404,2.625z"/>
<path fill="#FFFFFF" d="M117.584,13.402L117.584,13.402l-0.084-0.061l-8.335-4.795c-0.189-0.16-0.411-0.221-0.654-0.221
	c-0.632,0-1.148,0.525-1.148,1.18v19.438c0,0.16,0.037,0.365,0.159,0.571c0.327,0.541,1.013,0.746,1.576,0.412l8.402-4.864
	l8.418-4.848c0.175-0.1,0.328-0.236,0.434-0.441c0.335-0.548,0.114-1.249-0.411-1.561L117.584,13.402L117.584,13.402z"/>
<path fill="#FFFFFF" d="M9.997,118.92c1.46,0,2.792,0.59,3.748,1.546l0.021,0.027c0.945,0.956,1.532,2.272,1.532,3.72
	c0,1.462-0.595,2.784-1.553,3.746l-0.025,0.021c-0.955,0.944-2.271,1.528-3.723,1.528c-1.459,0-2.784-0.589-3.744-1.553v0.004
	c-0.954-0.962-1.551-2.284-1.551-3.746c0-1.46,0.592-2.784,1.551-3.744v-0.003h0.004C7.217,119.51,8.538,118.92,9.997,118.92
	L9.997,118.92z M12.313,123.806L12.313,123.806h-1.907v-3.244c0-0.223-0.181-0.405-0.409-0.405c-0.223,0-0.407,0.183-0.407,0.405
	v3.64v0.012c0,0.224,0.185,0.409,0.407,0.409h2.316c0.227,0,0.406-0.186,0.406-0.409C12.72,123.992,12.54,123.806,12.313,123.806
	L12.313,123.806z M13.171,121.042L13.171,121.042c-0.813-0.81-1.935-1.312-3.174-1.312c-1.234,0-2.358,0.503-3.166,1.312H6.826
	c-0.805,0.812-1.308,1.931-1.308,3.171c0,1.235,0.503,2.357,1.312,3.173l0,0c0.808,0.805,1.932,1.313,3.166,1.313
	c1.23,0,2.342-0.504,3.154-1.3l0.02-0.014c0.809-0.815,1.312-1.938,1.312-3.173c0-1.231-0.499-2.345-1.296-3.149L13.171,121.042
	L13.171,121.042z"/>
<path fill="#FFFFFF" d="M7.428,140.587l5.633,3.245c0.211,0.125,0.277,0.388,0.152,0.604c-0.035,0.067-0.094,0.124-0.16,0.161
	l-5.66,3.272c-0.215,0.118-0.488,0.046-0.605-0.159c-0.035-0.074-0.055-0.158-0.055-0.227v-6.539c0-0.242,0.191-0.447,0.434-0.447
	C7.268,140.497,7.361,140.54,7.428,140.587L7.428,140.587z M3.854,135.778L3.854,135.778h12.305c1.902,0,3.461,1.559,3.461,3.459
	v9.938c0,1.9-1.559,3.471-3.461,3.471H3.854c-1.91,0-3.473-1.57-3.473-3.471v-9.938C0.381,137.349,1.955,135.778,3.854,135.778
	L3.854,135.778z M16.158,137.265L16.158,137.265H3.854c-1.09,0-1.992,0.896-1.992,1.972v9.938c0,1.098,0.895,1.991,1.992,1.991
	h12.305c1.082,0,1.98-0.903,1.98-1.991v-9.938C18.139,138.157,17.244,137.265,16.158,137.265L16.158,137.265z M7.611,141.71
	L7.611,141.71v5.014l4.344-2.51L7.611,141.71L7.611,141.71z"/>
<rect y="0.214" fill="#FFFFFF" fill-opacity="0" width="38" height="38"/>
<rect y="76.214" fill="#FFFFFF" fill-opacity="0" width="38" height="38"/>
<rect x="38" y="0.214" fill="#FFFFFF" fill-opacity="0" width="38" height="38"/>
<rect x="38" y="38.214" fill="#FFFFFF" fill-opacity="0" width="38" height="38"/>
<rect x="38" y="76.214" fill="#FFFFFF" fill-opacity="0" width="38" height="38"/>
<rect x="76" y="76.214" fill="#FFFFFF" fill-opacity="0" width="38" height="38"/>
<rect y="114.214" fill="#FFFFFF" fill-opacity="0" width="20" height="20"/>
<rect y="134.214" fill="#FFFFFF" fill-opacity="0" width="20" height="20"/>
<rect x="20" y="134.214" fill="#FFFFFF" fill-opacity="0" width="20" height="20"/>
<rect x="40" y="134.214" fill="#FFFFFF" fill-opacity="0" width="20" height="20"/>
<rect y="156.764" fill="#FFFFFF" fill-opacity="0" width="30" height="30"/>
<rect y="186.764" fill="#FFFFFF" fill-opacity="0" width="30" height="30"/>
<rect y="216.764" fill="#FFFFFF" fill-opacity="0" width="30" height="30"/>
<rect y="246.764" fill="#FFFFFF" fill-opacity="0" width="30" height="30"/>
<rect y="276.764" fill="#FFFFFF" fill-opacity="0" width="30" height="30"/>
<path fill="#0D0C34" d="M66.337,94.363l0.045,0.052l0.02,0.026l0.019,0.022l0.033,0.052c0.032,0.036,0.058,0.078,0.084,0.129
	l0.032,0.042l0.02,0.052c0.02,0.032,0.032,0.084,0.052,0.136v0.033l0.026,0.094l0.013,0.11v0.068l0,0v0.067v0.068l-0.013,0.11
	l-0.026,0.113v0.016c-0.02,0.042-0.032,0.095-0.052,0.136l-0.02,0.052l-0.032,0.042l0,0c-0.026,0.052-0.052,0.094-0.084,0.143
	l-0.033,0.036l-0.019,0.026l-0.02,0.017l-0.045,0.051l-9.573,9.586c-0.485,0.469-1.242,0.469-1.708,0
	c-0.453-0.466-0.453-1.221,0-1.698l7.536-7.532H48.53c-0.673,0-1.21-0.534-1.21-1.197s0.537-1.2,1.21-1.2h14.062l-7.536-7.54
	c-0.453-0.465-0.453-1.222,0-1.69c0.466-0.466,1.223-0.466,1.708,0l9.547,9.563L66.337,94.363L66.337,94.363z M66.68,95.179
	L66.68,95.179v0.035v0.032V95.179L66.68,95.179z"/>
<path fill="#FFFFFF" d="M51.853,48.397l2.801,3.606l0.038,0.053c0.133,0.184,0.227,0.377,0.282,0.581
	c0.061,0.229,0.077,0.468,0.042,0.713c-0.038,0.246-0.116,0.47-0.237,0.675l-0.029,0.041c-0.118,0.185-0.27,0.346-0.453,0.479
	l-0.045,0.03l-1.363,0.993c-0.086,0.197-0.19,0.632,0.187,1.167c0.602,0.863,1.269,1.661,2.005,2.396l0.002,0.004V59.13
	c0.74,0.741,1.542,1.412,2.395,2.01c0.537,0.375,0.97,0.271,1.166,0.188l1.026-1.408l0,0c0.143-0.2,0.318-0.361,0.522-0.482v-0.002
	c0.201-0.121,0.425-0.201,0.671-0.235l0.028-0.004c0.237-0.027,0.467-0.015,0.685,0.042l0.042,0.014
	c0.211,0.061,0.408,0.166,0.591,0.307l0.001-0.001l3.608,2.801l0.057,0.052c0.184,0.152,0.329,0.335,0.437,0.543v-0.003
	c0.117,0.225,0.181,0.476,0.193,0.743c0.011,0.263-0.031,0.518-0.128,0.754h0.004c-0.099,0.232-0.247,0.45-0.443,0.63
	c-0.234,0.217-0.516,0.443-0.863,0.65l-0.041,0.021c-0.333,0.197-0.722,0.38-1.178,0.533c-1.982,0.659-4.103,0.539-6.133-0.136
	c-2.153-0.719-4.214-2.058-5.905-3.75c-1.692-1.691-3.03-3.749-3.747-5.901c-0.676-2.034-0.796-4.152-0.138-6.137
	c0.159-0.473,0.353-0.876,0.554-1.216l0.003-0.001l-0.003-0.002c0.211-0.344,0.436-0.631,0.648-0.862
	c0.185-0.197,0.399-0.344,0.633-0.439l0.061-0.022c0.218-0.08,0.453-0.116,0.696-0.102c0.266,0.011,0.515,0.076,0.74,0.192
	l0.04,0.021L51.853,48.397L51.853,48.397z M53.502,52.901L53.502,52.901l-2.8-3.607l0,0c-0.029-0.037-0.059-0.067-0.086-0.083
	L50.595,49.2c-0.039-0.019-0.086-0.031-0.137-0.031c-0.043-0.003-0.085,0-0.119,0.01l-0.024,0.011
	c-0.038,0.017-0.077,0.043-0.11,0.081c-0.154,0.164-0.315,0.368-0.467,0.623l0,0c-0.156,0.257-0.305,0.565-0.422,0.926
	c-0.556,1.663-0.446,3.469,0.139,5.218c0.636,1.925,1.854,3.783,3.396,5.326c1.543,1.542,3.404,2.76,5.328,3.4
	c1.747,0.582,3.553,0.69,5.22,0.136c0.342-0.114,0.64-0.253,0.893-0.401l0.03-0.021c0.253-0.152,0.459-0.313,0.624-0.465
	c0.037-0.037,0.065-0.075,0.079-0.113h0.003v-0.003c0.016-0.035,0.025-0.087,0.021-0.139c0-0.052-0.014-0.101-0.035-0.139h0.004
	h-0.004C65,63.59,64.98,63.56,64.947,63.536l-0.026-0.022l-3.608-2.8h0.003l-0.003-0.004c-0.031-0.024-0.066-0.041-0.097-0.055
	l-0.017-0.004c-0.034-0.009-0.076-0.01-0.121-0.007l-0.008,0.001c-0.047,0.006-0.089,0.023-0.124,0.041l0,0h-0.003
	c-0.031,0.02-0.064,0.048-0.091,0.09l-0.002-0.001l-0.001,0.001l-1.102,1.515c-0.061,0.087-0.139,0.166-0.237,0.225
	c-0.002,0.002-1.292,0.918-2.866-0.181c-0.941-0.658-1.806-1.383-2.592-2.168l0,0c-0.792-0.792-1.516-1.657-2.172-2.597
	c-1.097-1.57-0.179-2.86-0.179-2.864l0,0c0.05-0.082,0.117-0.154,0.197-0.214l1.494-1.088l0.049-0.039
	c0.034-0.025,0.059-0.048,0.079-0.073l0.011-0.02c0.02-0.034,0.034-0.076,0.041-0.125c0.005-0.048,0.002-0.093-0.007-0.13
	c-0.007-0.028-0.022-0.06-0.039-0.087L53.502,52.901L53.502,52.901z M51.85,48.397L51.85,48.397h0.003H51.85L51.85,48.397z
	 M51.85,48.397L51.85,48.397L51.85,48.397L51.85,48.397L51.85,48.397z"/>
<g>
	<g>
		<path fill="#FFFFFF" d="M20.473,227.346c0.143,0,0.281,0.004,0.421,0.01c-0.737-4.014-4.884-7.087-9.888-7.087
			C5.479,220.269,1,224.014,1,228.636c0,2.708,1.54,5.119,3.928,6.647c0.03,0.019,0.092,0.058,0.092,0.058l-0.968,3.029l3.617-1.842
			c0,0,0.114,0.032,0.171,0.047c0.995,0.278,2.06,0.428,3.166,0.428c0.225,0,0.449-0.009,0.672-0.021
			c-0.206-0.636-0.318-1.306-0.318-1.996C11.36,230.767,15.441,227.346,20.473,227.346z M14.487,224.393
			c0.777,0,1.404,0.609,1.404,1.361c0,0.751-0.627,1.361-1.404,1.361c-0.777,0-1.405-0.61-1.405-1.361
			C13.082,225.002,13.709,224.393,14.487,224.393z M7.523,227.115c-0.776,0-1.404-0.61-1.404-1.361s0.628-1.361,1.404-1.361
			c0.777,0,1.407,0.609,1.407,1.361C8.93,226.505,8.301,227.115,7.523,227.115z"/>
	</g>
	<path fill="#FFFFFF" d="M12.096,235.034c0,3.905,3.785,7.07,8.454,7.07c0.934,0,1.834-0.127,2.674-0.361
		c0.048-0.014,0.143-0.043,0.143-0.043l3.055,1.559l-0.816-2.559c0,0,0.052-0.033,0.077-0.049c2.016-1.292,3.317-3.326,3.317-5.617
		c0-3.902-3.783-7.066-8.451-7.066S12.096,231.132,12.096,235.034z M22.302,232.6c0-0.634,0.531-1.148,1.188-1.148
		c0.657,0,1.188,0.514,1.188,1.148c0,0.636-0.531,1.149-1.188,1.149C22.833,233.75,22.302,233.236,22.302,232.6z M16.42,232.6
		c0-0.634,0.532-1.148,1.187-1.148c0.656,0,1.188,0.514,1.188,1.148c0,0.636-0.531,1.149-1.188,1.149
		C16.952,233.75,16.42,233.236,16.42,232.6z"/>
</g>
<g>
	<line fill="none" x1="1.386" y1="283.494" x2="1.386" y2="283.494"/>
	<g>
		<path fill="#FFFFFF" d="M1.193,283.972C1.077,284.311,1,284.67,1,285.049v13.083l9.499-8.232L1.193,283.972z"/>
		<path fill="#FFFFFF" d="M29,297.527v-12.479c0-0.257-0.036-0.504-0.091-0.743l-8.917,5.417L29,297.527z"/>
		<path fill="#FFFFFF" d="M28.116,282.805c-0.608-0.666-1.477-1.088-2.449-1.088H4.332c-0.846,0-1.611,0.326-2.199,0.846
			l12.877,8.205L28.116,282.805z"/>
		<path fill="#FFFFFF" d="M15.44,292.487c-0.008,0.004-0.015,0.005-0.02,0.009c-0.043,0.026-0.091,0.043-0.137,0.06
			c-0.024,0.008-0.045,0.021-0.068,0.026c-0.063,0.018-0.13,0.025-0.196,0.026c-0.006,0-0.012,0.002-0.018,0.002H15h-0.001
			c-0.004,0-0.009-0.001-0.016-0.001c-0.07-0.001-0.137-0.011-0.204-0.03c-0.024-0.005-0.045-0.018-0.069-0.026
			c-0.049-0.019-0.098-0.038-0.144-0.062c-0.006-0.004-0.014-0.005-0.021-0.01l-2.556-1.628l-10.435,9.042
			c-0.053,0.047-0.114,0.073-0.173,0.103c0.553,1.075,1.661,1.815,2.95,1.815h21.336c1.448,0,2.668-0.929,3.128-2.219l-10.324-8.946
			L15.44,292.487z"/>
	</g>
</g>
<g>
	<g>
		<path fill="#FFFFFF" d="M22.077,262.115c-1.107-0.214-0.57-0.812-0.57-0.812s1.083-1.786-0.213-3.083
			c-1.608-1.605-5.516,0.204-5.516,0.204c-1.492,0.464-1.097-0.21-0.885-1.357c0-1.354-0.464-3.642-4.439-2.29
			c-3.971,1.358-7.382,6.119-7.382,6.119c-2.371,3.167-2.057,5.612-2.057,5.612c0.592,5.399,6.33,6.882,10.791,7.233
			c4.696,0.367,11.032-1.619,12.953-5.699C26.678,263.956,23.188,262.338,22.077,262.115z M12.152,272.221
			c-4.66,0.218-8.428-2.12-8.428-5.228c0-3.114,3.768-5.612,8.428-5.826c4.665-0.215,8.439,1.707,8.439,4.813
			C20.591,269.089,16.817,272.008,12.152,272.221z"/>
		<path fill="#FFFFFF" d="M11.222,263.216c-4.687,0.549-4.146,4.94-4.146,4.94s-0.047,1.391,1.257,2.099
			c2.742,1.484,5.566,0.585,6.994-1.257C16.756,267.155,15.917,262.672,11.222,263.216z M10.041,269.379
			c-0.875,0.102-1.58-0.402-1.58-1.134c0-0.729,0.626-1.493,1.501-1.584c1.005-0.095,1.66,0.483,1.66,1.215
			C11.623,268.605,10.912,269.28,10.041,269.379z M12.804,267.026c-0.297,0.221-0.661,0.189-0.817-0.076
			c-0.164-0.259-0.104-0.674,0.197-0.893c0.348-0.258,0.709-0.184,0.865,0.076C13.206,266.397,13.094,266.796,12.804,267.026z"/>
	</g>
	<path fill="#FFFFFF" d="M28.86,259.656c0.022-0.087,0.037-0.176,0.037-0.271C28.96,258.972,29,258.551,29,258.13
		c0-4.625-3.763-8.389-8.389-8.389c-0.642,0-1.16,0.519-1.16,1.159c0,0.641,0.519,1.16,1.16,1.16c3.347,0,6.069,2.723,6.069,6.07
		c0,0.373-0.034,0.747-0.102,1.11l0.013,0.002c-0.004,0.044-0.012,0.088-0.012,0.133c0,0.641,0.519,1.159,1.159,1.159
		c0.542,0,0.992-0.372,1.12-0.871h0.002C28.86,259.661,28.86,259.658,28.86,259.656z"/>
	<path fill="#FFFFFF" d="M25.229,258.566c0.013-0.144,0.028-0.288,0.028-0.436c0-2.562-2.085-4.646-4.646-4.646
		c-0.534,0-0.967,0.433-0.967,0.966c0,0.534,0.433,0.967,0.967,0.967c1.496,0,2.713,1.217,2.713,2.713
		c0,0.119-0.008,0.235-0.022,0.349l0.023,0.003c-0.005,0.04-0.023,0.073-0.023,0.113c0,0.534,0.433,0.966,0.966,0.966
		c0.489,0,0.876-0.368,0.941-0.839l0.009,0.002c0.003-0.024,0.002-0.05,0.005-0.073c0.001-0.02,0.011-0.036,0.011-0.056
		C25.235,258.584,25.229,258.576,25.229,258.566z"/>
</g>
<path fill="#FFFFFF" d="M14.563,197.353c0-0.513,0.001-0.857,0-1.205c-0.006-2.461,1.086-4.307,3.281-5.364
	c2.159-1.042,4.292-0.792,6.185,0.702c0.566,0.446,1.047,0.545,1.674,0.295c0.792-0.316,1.59-0.617,2.495-0.967
	c-0.263,1.241-1.127,1.983-1.922,2.77c0.025,0.069,0.051,0.137,0.075,0.206c0.842-0.22,1.682-0.44,2.522-0.66
	c0.042,0.042,0.085,0.083,0.128,0.124c-0.667,0.7-1.279,1.466-2.017,2.076c-0.563,0.465-0.724,0.952-0.736,1.646
	c-0.14,7.624-5.366,14.255-12.581,15.926c-3.911,0.907-7.713,0.528-11.353-1.215c-0.45-0.215-0.876-0.479-1.313-0.809
	c2.936,0.099,5.612-0.576,8.208-2.498c-2.563-0.385-4.327-1.548-5.306-3.942c0.792-0.061,1.436-0.11,2.079-0.161
	c-2.479-1.157-4.014-2.904-4.19-5.782c0.792,0.208,1.513,0.4,2.235,0.592c-2.191-2.268-2.803-4.744-1.451-7.805
	C5.816,194.924,9.685,197.038,14.563,197.353"/>
<path fill="#FFFFFF" d="M11.669,185.764v-13.139H8.195v-4.73h3.474v-4.04c0-3.176,2.052-6.091,6.781-6.091
	c1.915,0,3.33,0.182,3.33,0.182l-0.112,4.418c0,0-1.444-0.014-3.02-0.014c-1.705,0-1.978,0.785-1.978,2.089v3.455h5.134l-0.224,4.73
	h-4.91v13.139h-5.001V185.764z"/>
<path fill="#FFFFFF" d="M33.861,130.186c0.314,0.309,0.314,0.839,0,1.158c-0.314,0.326-0.837,0.326-1.162,0l-6.547-6.547
	c-0.332-0.326-0.332-0.849,0-1.169l6.547-6.55c0.324-0.319,0.848-0.319,1.162,0c0.314,0.323,0.314,0.836,0,1.162l-5.976,5.964
	L33.861,130.186L33.861,130.186z"/>
<rect x="20" y="114.214" fill="#FFFFFF" fill-opacity="0" width="20" height="20"/>
<path fill="#FFFFFF" d="M46.139,118.242c-0.314-0.309-0.314-0.839,0-1.158c0.314-0.326,0.837-0.326,1.162,0l6.547,6.547
	c0.332,0.326,0.332,0.849,0,1.169l-6.547,6.55c-0.324,0.319-0.848,0.319-1.162,0c-0.314-0.323-0.314-0.836,0-1.162l5.976-5.964
	L46.139,118.242L46.139,118.242z"/>
<rect x="40" y="114.214" fill="#FFFFFF" fill-opacity="0" width="20" height="20"/>
<g id="图层_2_1_">
</g>
<g id="图层_3">
</g>
<path fill="#FFFFFF" d="M29.676,149.464l-4.585-4.573c-0.477-0.479-0.82-1.054-0.981-1.664c-0.157-0.586-0.153-1.217,0.059-1.857
	c0.187-0.555,0.51-1.058,0.931-1.468c0.413-0.409,0.926-0.726,1.494-0.905c0.654-0.21,1.302-0.212,1.912-0.056
	c0.537,0.144,1.044,0.416,1.493,0.793c0.452-0.378,0.961-0.65,1.5-0.788c0.609-0.161,1.258-0.155,1.915,0.054
	c0.561,0.176,1.074,0.493,1.491,0.902c0.418,0.411,0.745,0.913,0.926,1.471h0.003c0.208,0.631,0.215,1.266,0.058,1.854
	c-0.164,0.61-0.503,1.186-0.987,1.664l-0.021,0.016l-4.558,4.557C30.147,149.643,29.85,149.643,29.676,149.464L29.676,149.464
	L29.676,149.464z M30.547,140.476L30.547,140.476l-0.008,0.007l-1.469,1.467c-0.103,0.112-0.278,0.112-0.39,0
	c-0.104-0.108-0.111-0.28,0-0.394l0.933-0.93l-0.009-0.018c-0.401-0.373-0.855-0.645-1.337-0.773
	c-0.444-0.117-0.919-0.116-1.405,0.039c-0.415,0.137-0.802,0.373-1.122,0.687c-0.315,0.308-0.563,0.681-0.696,1.1
	c-0.149,0.459-0.157,0.908-0.049,1.329c0.121,0.447,0.383,0.876,0.75,1.239l4.25,4.257l4.238-4.225l0.016-0.032
	c0.37-0.362,0.628-0.792,0.75-1.239c0.115-0.42,0.112-0.869-0.046-1.329l0,0c-0.134-0.419-0.379-0.792-0.694-1.1
	c-0.321-0.309-0.708-0.55-1.128-0.683c-0.476-0.159-0.954-0.159-1.399-0.043C31.307,139.947,30.907,140.168,30.547,140.476
	L30.547,140.476z"/>
<path fill="#FFFFFF" d="M47.784,143.153c0.242,0,0.459,0.098,0.618,0.256c0.162,0.163,0.259,0.377,0.259,0.622
	c0,0.241-0.098,0.456-0.259,0.614c-0.159,0.159-0.376,0.261-0.618,0.261c-0.242,0-0.461-0.104-0.619-0.261
	c-0.161-0.158-0.255-0.373-0.255-0.614c0-0.245,0.094-0.459,0.255-0.622C47.323,143.25,47.542,143.153,47.784,143.153
	L47.784,143.153z M50.004,138.805L50.004,138.805c1.638,0,3.128,0.577,4.208,1.509c1.104,0.948,1.788,2.26,1.788,3.717
	c0,1.451-0.684,2.767-1.788,3.71c-1.08,0.937-2.572,1.509-4.208,1.509c-0.5,0-0.979-0.056-1.438-0.152
	c-0.396-0.083-0.778-0.196-1.141-0.354l-1.444,0.779c-0.14,0.072-0.292,0.108-0.441,0.099l0,0c-0.152-0.014-0.296-0.069-0.427-0.165
	c-0.124-0.098-0.214-0.224-0.268-0.37l0,0c-0.054-0.139-0.065-0.296-0.033-0.45l0.348-1.521c-0.34-0.406-0.623-0.861-0.812-1.343
	c-0.221-0.542-0.346-1.135-0.346-1.739c0-1.458,0.68-2.771,1.786-3.717C46.868,139.382,48.36,138.805,50.004,138.805L50.004,138.805
	z M53.617,141.011L53.617,141.011c-0.922-0.79-2.199-1.283-3.613-1.283c-1.421,0-2.699,0.494-3.621,1.283
	c-0.896,0.776-1.461,1.846-1.461,3.021c0,0.483,0.1,0.954,0.276,1.39c0.183,0.451,0.447,0.868,0.782,1.231
	c0.115,0.108,0.173,0.271,0.135,0.442l-0.34,1.498l1.414-0.764c0.121-0.063,0.271-0.076,0.405-0.014
	c0.361,0.168,0.749,0.302,1.166,0.386c0.392,0.084,0.813,0.127,1.245,0.127c1.414,0,2.69-0.491,3.613-1.284
	c0.904-0.772,1.458-1.842,1.458-3.013C55.074,142.857,54.521,141.787,53.617,141.011L53.617,141.011z M48.012,143.8L48.012,143.8
	c-0.058-0.058-0.14-0.098-0.229-0.098c-0.089,0-0.171,0.04-0.229,0.098c-0.054,0.055-0.092,0.139-0.092,0.231
	c0,0.089,0.039,0.168,0.092,0.22c0.057,0.064,0.14,0.1,0.229,0.1c0.088,0,0.171-0.036,0.229-0.1c0.06-0.052,0.092-0.131,0.092-0.22
	C48.104,143.938,48.072,143.854,48.012,143.8L48.012,143.8z M50.004,143.153L50.004,143.153c0.242,0,0.457,0.098,0.615,0.256
	c0.159,0.163,0.255,0.377,0.255,0.622c0,0.241-0.096,0.456-0.255,0.614c-0.158,0.159-0.373,0.261-0.615,0.261
	c-0.246,0-0.465-0.104-0.623-0.261c-0.157-0.158-0.259-0.373-0.259-0.614c0-0.245,0.102-0.459,0.259-0.622
	C49.539,143.25,49.758,143.153,50.004,143.153L50.004,143.153z M50.225,143.8L50.225,143.8c-0.058-0.058-0.136-0.098-0.221-0.098
	c-0.092,0-0.175,0.04-0.23,0.098c-0.058,0.055-0.094,0.139-0.094,0.231c0,0.089,0.037,0.168,0.094,0.22
	c0.056,0.064,0.138,0.1,0.23,0.1c0.084,0,0.163-0.036,0.221-0.1c0.06-0.052,0.1-0.131,0.1-0.22
	C50.325,143.938,50.284,143.854,50.225,143.8L50.225,143.8z M52.216,143.153L52.216,143.153c0.242,0,0.457,0.098,0.621,0.256
	c0.157,0.163,0.255,0.377,0.255,0.622c0,0.241-0.098,0.456-0.255,0.614c-0.164,0.159-0.378,0.261-0.621,0.261
	c-0.242,0-0.459-0.104-0.622-0.261c-0.158-0.158-0.255-0.373-0.255-0.614c0-0.245,0.098-0.459,0.255-0.622
	C51.757,143.25,51.975,143.153,52.216,143.153L52.216,143.153z M52.445,143.8L52.445,143.8c-0.06-0.058-0.138-0.098-0.229-0.098
	c-0.092,0-0.171,0.04-0.23,0.098c-0.058,0.055-0.09,0.139-0.09,0.231c0,0.089,0.033,0.168,0.09,0.22c0.06,0.064,0.138,0.1,0.23,0.1
	c0.09,0,0.169-0.036,0.229-0.1c0.056-0.052,0.092-0.131,0.092-0.22C52.537,143.938,52.5,143.854,52.445,143.8L52.445,143.8z"/>
<rect x="60" y="134.214" fill="#FFFFFF" fill-opacity="0" width="20" height="20"/>
<path fill="#FFFFFF" d="M75.267,147.618c0.272,0.277,0.739,0.277,1.022,0c0.287-0.287,0.287-0.744,0-1.025l-5.773-5.783
	c-0.288-0.277-0.749-0.277-1.031,0l-5.777,5.783c-0.281,0.281-0.281,0.738,0,1.025c0.287,0.277,0.738,0.277,1.025,0l5.26-5.27
	L75.267,147.618L75.267,147.618z"/>
<path fill="#FFFFFF" d="M95.003,84.208c3.036,0,5.78,1.239,7.775,3.241c1.996,1.982,3.222,4.743,3.222,7.765
	c0,3.046-1.226,5.793-3.222,7.795c-1.995,1.979-4.739,3.211-7.775,3.211c-3.042,0-5.793-1.232-7.782-3.211
	C85.226,101.007,84,98.259,84,95.213c0-3.022,1.226-5.783,3.222-7.765C89.21,85.447,91.961,84.208,95.003,84.208L95.003,84.208z
	 M101.586,101.796L101.586,101.796c1.577-1.559,2.585-3.702,2.71-6.065h-3.208c-0.052,2.019-0.431,3.894-1.027,5.472
	c0.451,0.243,0.882,0.513,1.287,0.822C101.427,101.942,101.506,101.873,101.586,101.796L101.586,101.796z M100.544,102.696
	L100.544,102.696c-0.278-0.212-0.577-0.39-0.888-0.565c-0.092,0.176-0.166,0.344-0.265,0.51c-0.226,0.414-0.464,0.798-0.743,1.14
	C99.331,103.494,99.968,103.128,100.544,102.696L100.544,102.696z M96.528,104.401L96.528,104.401
	c0.749-0.464,1.425-1.235,1.975-2.25c0.092-0.147,0.166-0.299,0.246-0.465c-0.125-0.053-0.252-0.099-0.377-0.146
	c-0.896-0.335-1.863-0.533-2.863-0.583v3.553C95.865,104.496,96.197,104.454,96.528,104.401L96.528,104.401z M94.486,104.51
	L94.486,104.51v-3.553c-1.007,0.05-1.956,0.249-2.856,0.583c-0.125,0.047-0.238,0.092-0.377,0.146
	c0.08,0.166,0.16,0.318,0.245,0.465c0.556,1.015,1.233,1.786,1.961,2.25C93.791,104.454,94.148,104.496,94.486,104.51L94.486,104.51
	z M91.344,103.781L91.344,103.781c-0.259-0.341-0.511-0.725-0.742-1.14c-0.08-0.166-0.179-0.334-0.265-0.51
	c-0.305,0.176-0.604,0.354-0.889,0.565C90.032,103.128,90.669,103.494,91.344,103.781L91.344,103.781z M88.647,102.024
	L88.647,102.024c0.405-0.308,0.835-0.58,1.299-0.822c-0.61-1.577-0.974-3.453-1.027-5.472h-3.215c0.132,2.363,1.14,4.507,2.71,6.064
	C88.494,101.873,88.567,101.942,88.647,102.024L88.647,102.024z M99.14,100.758L99.14,100.758c0.537-1.441,0.875-3.164,0.941-5.028
	h-4.574v4.205c1.12,0.053,2.208,0.272,3.215,0.654C98.868,100.645,99,100.706,99.14,100.758L99.14,100.758z M94.486,99.936
	L94.486,99.936V95.73h-4.553c0.046,1.863,0.377,3.586,0.928,5.028c0.139-0.052,0.271-0.113,0.424-0.169
	C92.298,100.209,93.373,99.99,94.486,99.936L94.486,99.936z M101.586,88.635L101.586,88.635c-0.08-0.072-0.159-0.15-0.239-0.219
	c-0.405,0.302-0.835,0.582-1.287,0.819c0.597,1.568,0.975,3.457,1.027,5.471h3.208C104.171,92.347,103.163,90.203,101.586,88.635
	L101.586,88.635z M100.544,87.747L100.544,87.747c-0.577-0.438-1.213-0.799-1.896-1.097c0.278,0.354,0.517,0.726,0.743,1.14
	c0.099,0.16,0.172,0.345,0.265,0.521C99.968,88.145,100.267,87.95,100.544,87.747L100.544,87.747z M96.528,86.036L96.528,86.036
	c-0.332-0.052-0.663-0.103-1.021-0.113v3.56c1-0.044,1.968-0.252,2.863-0.59c0.125-0.037,0.252-0.095,0.377-0.146
	c-0.08-0.16-0.153-0.315-0.246-0.458C97.953,87.27,97.277,86.496,96.528,86.036L96.528,86.036z M94.486,85.925L94.486,85.925
	c-0.337,0.009-0.695,0.059-1.027,0.112c-0.729,0.459-1.405,1.233-1.961,2.254c-0.086,0.143-0.166,0.298-0.245,0.457
	c0.139,0.051,0.252,0.11,0.377,0.146c0.901,0.338,1.85,0.547,2.856,0.59V85.925L94.486,85.925z M91.344,86.65L91.344,86.65
	c-0.676,0.298-1.312,0.659-1.896,1.097c0.285,0.203,0.584,0.397,0.889,0.563c0.086-0.175,0.186-0.361,0.265-0.521
	C90.834,87.376,91.086,87.004,91.344,86.65L91.344,86.65z M88.647,88.416L88.647,88.416c-0.08,0.069-0.153,0.146-0.231,0.219
	c-1.572,1.568-2.579,3.712-2.711,6.071h3.215c0.053-2.014,0.417-3.903,1.027-5.471C89.482,88.998,89.05,88.719,88.647,88.416
	L88.647,88.416z M99.14,89.673L99.14,89.673c-0.139,0.069-0.271,0.12-0.417,0.165c-1.008,0.381-2.095,0.614-3.214,0.662v4.206h4.574
	C100.015,92.847,99.677,91.114,99.14,89.673L99.14,89.673z M94.486,90.5L94.486,90.5c-1.113-0.049-2.187-0.281-3.201-0.662
	c-0.152-0.046-0.285-0.096-0.424-0.165c-0.55,1.441-0.882,3.174-0.928,5.034h4.553V90.5L94.486,90.5z"/>
</svg>
